<svg width="40" height="40" viewBox="0 0 40 40" xmlns="http://www.w3.org/2000/svg" xmlns:xlink="http://www.w3.org/1999/xlink"><path fill="#FFF" fill-rule="evenodd" d="m36.7082075 32.5514804-25.6091125 6.7487854c-2.36139539.6341118-4.79424067-.7473405-5.45138502-3.0954818l-5.49787508-20.1845667c-.30045599-1.127166-.13717946-2.3272508.45359527-3.3339314.59077472-1.0066806 1.56018175-1.7366896 2.6930902-2.0280233l1.48251501-.3020819c.64313248 2.0480977 2.78846051 3.2298125 4.87025984 2.6826937 2.07793678-.5415935 3.34404858-2.6355486 2.85397058-4.72003052l7.1284694-1.87857213c.7095999 2.08108648 2.9333376 3.24021742 5.0527762 2.63377701 2.1377332-.50959629 3.4824866-2.62007531 3.0364869-4.76551441l1.1846345-.4007735c2.3611817-.63406803 4.793771.74745709 5.4505241 3.09548181l5.498736 20.18456674c.3009794 1.1274044.1379609 2.3279332-.4528576 3.3350106-.5908184 1.0070774-1.5605358 1.7373495-2.6938278 2.0286604zm-.1377482-5.8802998-4.5560218-16.72692986-27.81394456 7.33063646 4.55688268 16.7269298c.41046113 1.4675553 1.93098488 2.3309258 3.40668518 1.9343543l22.4400429-5.9103363c.7093481-.1811792 1.3164452-.6378202 1.6858642-1.2680589.3694191-.6302386.4704269-1.3816431.2804914-2.0865955zm-13.9203167 4.3278389c-4.182225 1.1311876-8.5415137-1.0935547-10.0659498-5.1371096l4.0937044-1.0787415c.8705482 1.8302043 2.9297199 2.7777623 4.891783 2.2510254 1.9622409-.5001835 3.2716257-2.3442782 3.0924471-4.3553008l4.0945653-1.0787415c.7414859 4.2423301-1.9196589 8.3382187-6.10655 9.398868zm.5466882-8.6419468c.1856807.7078568.0803146 1.4603086-.2927229 2.0904249-.3730375.6301162-.9829017 1.0857955-1.6942949 1.2659459-1.4799038.4024028-3.0087469-.4587603-3.4264865-1.9300634-.1856807-.7078567-.0803146-1.4603086.2927229-2.0904248.3730375-.6301163.9829017-1.0857956 1.6942949-1.2659459 1.4799038-.4024029 3.0087469.4587603 3.4264865 1.9300633zm-3.7880755-3.2508137c-1.9622409.5001836-3.2716258 2.3442782-3.0924471 4.3553009l-4.0937044 1.0787415c-.7415534-4.2420702 1.9191452-8.3378494 6.105689-9.398868 4.18227-1.131617 8.5418369 1.0932672 10.0659498 5.1371095l-4.0937043 1.0787416c-.8704179-1.8294189-2.928541-2.7768278-4.8900612-2.2510255zm4.8883393-11.62843873c-1.1797924.31727229-2.3958034-.37188011-2.7256926-1.54473725l-.8609262-3.17529324c-.1506981-.56366066-.0692135-1.16397745.2263332-1.66745143.2955466-.50347397.7806527-.86836412 1.34744-1.01352588 1.1796645-.3162739 2.395008.37250021 2.7256925 1.54473725l.8609262 3.1710023c.152552.56403784.0721625 1.16548172-.2232174 1.67002897-.2953798.50454725-.7811486.87017531-1.3488339 1.01523928zm-15.04640824 3.96568383c-1.1797923.3172723-2.39580334-.3718801-2.72569253-1.54473729l-.86092625-3.17529323c-.15069804-.56366067-.06921344-1.16397745.22633321-1.66745143.29554664-.50347398.78065273-.86836413 1.34743998-1.01352589 1.1796645-.3162739 2.39500805.37250021 2.72569253 1.54473725l.8609263 3.17529324c.1509957.5634344.0698518 1.16365462-.2253819 1.66714635-.2952337.5034918-.78007311.8684998-1.34666949 1.013831z"></path><path fill="#FFF" fill-rule="evenodd" d="m37.6258482 33.3652674-26.2493402 6.917505c-2.42043036.6499646-4.91409677-.766024-5.58766973-3.1728688l-5.63532195-20.6891809c-.30796739-1.1553451-.14060894-2.385432.46493515-3.4172796.60554409-1.0318477 1.59918629-1.7801069 2.76041746-2.0787239l1.51957789-.309634c.65921078 2.0993002 2.85817201 3.3105578 4.99201633 2.749761 2.12988525-.5551333 3.42764975-2.7014372 2.92531985-4.83803122l7.3066811-1.92553644c.7273399 2.13311364 3.006671 3.32122286 5.1790956 2.69962144 2.1911765-.52233619 3.5695488-2.68557719 3.1123991-4.88465228l1.2142504-.41079283c2.4202112-.64991973 4.9136153.76614352 5.5867872 3.17286886l5.6362044 20.68918087c.3085039 1.1555896.1414099 2.3861315-.464179 3.4183859-.605589 1.0322543-1.5995493 1.7807832-2.7611736 2.0793769zm-.1411919-6.0273073-4.6699223-17.1451031-28.50929319 7.5139024 4.67080474 17.1451031c.42072266 1.5042441 1.97925945 2.3891989 3.49185235 1.9827131l23.0010439-6.0580947c.7270819-.1857087 1.3493564-.6537658 1.7280109-1.2997603.3786545-.6459946.4821875-1.4161843.2875036-2.1387605zm-14.2683246 4.4360348c-4.2867806 1.1594673-8.7550515-1.1208935-10.3175985-5.2655372l4.196047-1.1057101c.8923119 1.8759594 3.0029629 2.8472063 5.0140775 2.3073011 2.0112969-.5126882 3.3534164-2.4028852 3.1697583-4.4641834l4.1969294-1.10571c.7600231 4.3483883-1.9676503 8.5466741-6.2592137 9.6338396zm.5603554-8.8579953c.1903227.7255531.0823225 1.4968162-.300041 2.1426854-.3823634.6458692-1.0074742 1.1129405-1.7366522 1.2975946-1.5169014.4124629-3.0839656-.4702294-3.5121487-1.978315-.1903227-.7255532-.0823225-1.4968163.300041-2.1426854.3823634-.6458692 1.0074742-1.1129405 1.7366522-1.2975946 1.5169014-.4124629 3.0839656.4702294 3.5121487 1.978315zm-3.8827774-3.3320841c-2.0112969.5126882-3.3534164 2.4028852-3.1697583 4.4641834l-4.196047 1.10571c-.7600922-4.3481219 1.9671239-8.5462956 6.2583313-9.6338397 4.2868267-1.1599074 8.7553828 1.1205989 10.3175985 5.2655373l-4.1960469 1.1057101c-.8921783-1.8751543-3.0017545-2.8462485-5.0123127-2.3073011zm5.0105478-11.91914972c-1.2092872.32520409-2.4556985-.38117712-2.7938349-1.58335568l-.8824494-3.25467557c-.1544655-.57775219-.0709438-1.19307689.2319915-1.70913772.3029354-.51606082.8001691-.89007323 1.381126-1.03886403 1.2091561-.32418075 2.4548833.38181271 2.7938349 1.58335568l.8824494 3.25027736c.1563657.57813878.0739665 1.19461876-.2287979 1.71177969-.3027643.51716094-.8006773.8919297-1.3825547 1.04062027zm-15.42256843 4.06482592c-1.20928712.3252041-2.45569843-.3811771-2.79383484-1.5833557l-.88244942-3.25467558c-.15446549-.57775219-.07094377-1.19307689.23199154-1.70913772.30293532-.51606082.80016906-.89007323 1.38112599-1.03886403 1.20915611-.32418075 2.45488324.38181271 2.79383486 1.58335568l.8824494 3.25467557c.1547707.57752026.0715982 1.19274598-.2310164 1.70882508-.3026146.516079-.799575.8902123-1.38033623 1.0391767z"></path></svg>