<svg xmlns="http://www.w3.org/2000/svg" xmlns:xlink="http://www.w3.org/1999/xlink" viewBox="0 0 1038 985"><g fill="#8654ff"><path d="M601.793 0h32.176c.542.919 1.46.656 2.248.69 9.993.491 19.952 1.541 29.846 3.051 34.03 5.169 66.617 15.128 97.349 30.667 70.997 35.9 122.355 90.112 151.823 164.375 10.387 26.17 16.507 53.408 18.46 81.531.18 2.642 1.033 4.644 2.92 6.596 35.195 36.475 66.272 76.166 93.066 119.188 3.38 5.431 6.99 10.78 8.319 17.212v5.005c-1 1.51-1.165 3.314-1.772 4.971-11.88 32.226-25.728 63.581-41.02 94.313-24.153 48.535-51.718 94.986-84.698 138.107-22.512 29.436-47.32 56.706-75.641 80.694a653.937 653.937 0 01-82.532 59.545c-1.05.64-2.429.984-2.921 2.445.525.557 1 1.083 1.493 1.591 10.272 10.124 20.264 20.527 29.912 31.241 3.511 3.905 3.84 7.597.935 11.961-1.329 2.002-3.068 3.643-4.857 5.218-10.648 9.353-21.264 18.755-31.995 28.041-26.483 22.922-53.03 45.795-79.546 68.7-3.347 2.889-7.04 3.233-11.01 1.707-2.953-1.132-5.333-3.1-7.531-5.332-2.51-2.544-4.939-5.169-7.499-7.663-21.412-20.772-44.137-39.986-67.929-57.986-1.805-1.362-3.396-1.673-5.562-1.083-49.503 13.242-99.794 21.659-150.954 24.973-19.755 1.28-39.527 1.346-59.315 1.23-4.053-.016-7.186-1.279-10.123-4.183-15.014-14.833-29.436-30.207-42.99-46.402A726.767 726.767 0 01220.8 740.296c-1.214-2.248-2.674-3.33-5.135-3.626-4.84-.574-9.665-1.345-14.505-1.985a755.828 755.828 0 00-45.5-4.578c-13.552-.952-27.105-1.74-40.708-1.51-3.002.05-5.94-.508-8.68-1.788-3.79-1.756-5.775-4.643-5.874-8.975-.426-18.23-.968-36.442-1.493-54.672-.837-29.173-1.854-58.363-2.05-87.553-.018-2.15-.066-4.299.13-6.432.575-5.94 3.807-9.927 10.682-9.976 13.947-.082 27.877-.394 41.824-.147 1.23.016 2.56.328 3.84-.476-.132-.722-.23-1.297-.345-1.87-5.989-29.47-9.73-59.217-11.453-89.228-1.69-29.485-.328-58.839 3.594-88.078 3.823-28.599 9.713-56.804 17.31-84.632 18.672-68.29 44.925-133.578 77.987-196.158 1.936-3.675 4.824-6.12 8.483-7.843 2.937-1.378 6.071-2.084 9.205-2.806 27.664-6.382 55.705-10.468 83.894-13.487 23.94-2.56 47.977-3.889 72.048-4.135 2.313-.016 4.036-.787 5.792-2.182 23.824-19 49.962-34.047 78.299-45.27C530.747 9.96 564.564 2.56 599.594.656c.755-.016 1.674.263 2.2-.656zm-220.36 482.067c-1.148-.492-1.788-1.542-2.592-2.412-7.137-7.86-13.733-16.162-20.018-24.71-1.542-2.1-2.133-3.823-.278-5.94.689-.788 1.132-1.821 1.64-2.756 3.971-7.17 6.613-14.768 7.121-23.02.968-15.638-4.66-28.912-14.701-40.562-.509-.59-.952-1.427-2.248-1.263-7.695 13.126-11.617 27.254-9.615 43.202-1.477-1.099-1.805-2.28-2.33-3.298-4.824-9.45-9.008-19.197-12.634-29.157-1.772-4.89-1.772-4.89 1.969-8.286 14.767-13.405 21.347-29.78 17.95-49.716-.902-5.267-2.363-10.403-5.25-15.506-12.323 11.043-20.937 23.841-23.579 40.233-1.214-.558-1.017-1.51-1.198-2.28-2.083-9.665-3.429-19.46-4.709-29.256-.508-3.856.18-6.071 3.79-8.32 18.082-11.304 26.647-27.63 24.563-49.141-.213-2.215-.377-4.48-1.624-6.744-4.151 2.429-7.827 5.202-11.289 8.286-3.577 3.183-6.793 6.678-9.615 10.55-2.69 3.709-4.775 7.778-6.744 12.11-.41-.493-.525-.575-.525-.64.017-11.092.788-22.135 1.92-33.16.148-1.494 1.05-1.937 2.248-2.364 3.823-1.345 7.515-3.019 10.993-5.135 11.338-6.859 18.443-16.704 20.74-29.814.706-4.052 1.149-8.17.213-12.503-3.298 1.083-6.038 2.527-8.745 4.004a62.489 62.489 0 00-8.09 5.234c-2.477 1.887-4.741 3.987-6.874 6.235-2.133 2.232-3.84 4.84-5.973 7.121-.18-1.115-.13-2.067.082-2.97 1.576-7.088 3.364-14.143 4.677-21.28.738-3.971 2.625-5.842 6.48-7.187 14.735-5.153 23.546-15.62 26.139-31.126.18-1.133.623-2.314-.312-3.61-8.762 2.494-16.523 6.793-23.332 13.274-.295-1.575.312-2.527.656-3.495 1.805-5.054 3.708-10.058 5.497-15.112.771-2.198 2.034-3.905 3.807-5.464 8.745-7.662 14.242-17.212 15.817-28.796.705-5.168.771-10.386-.509-15.604-.607.148-.984.148-1.28.312-11.78 7.006-25.4 21.724-22.232 42.25.328 2.084.016 3.971-.755 5.908-2.904 7.301-5.546 14.718-8.007 22.167-.263.804-.312 1.854-1.56 2.56-1.558-11.716-7.284-20.757-16.161-28.091-2.92 4.332-4.168 13.536-3.889 17.934.657 10.271 5.316 18.426 13.127 24.842 1.936 1.591 2.494 2.937 1.772 5.414-2.215 7.663-3.971 15.457-5.595 23.267-.345 1.673-.329 3.478-1.592 5.447-2.264-6.481-5.283-12.109-9.467-17.048-4.234-5.004-9.09-9.303-14.603-12.732-.739.607-.936 1.148-1.067 1.739-3.659 15.505-.492 29.288 10.534 41.02a44.743 44.743 0 009.402 7.646c1.657 1.001 2.264 2.1 2.001 4.053-1.493 10.993-2.116 22.052-2.247 33.144-.017 1.116.393 2.38-.903 3.659-3.2-6.596-7.465-12.257-12.782-17.114-5.857-5.332-14.176-10.468-17.983-11.042-.098.328-.279.656-.312 1-1.542 15.293 2.38 28.797 13.225 39.987 4.873 5.037 10.715 8.713 17.147 11.42 1.87.788 2.674 1.805 2.871 3.889 1 10.681 2.56 21.28 4.758 31.782.427 2.035 1.132 4.02 1.215 6.99-10.616-15.046-24.81-23.43-41.513-28.14-.23.64-.36.853-.377 1.083-.029.476-.05.952.016 1.428 1.608 12.65 6.334 23.89 15.161 33.226 8.647 9.139 19.477 14.34 31.586 17.048 2.182.492 3.2 1.51 3.888 3.495 4.857 13.864 10.945 27.171 18 40.052.41.738 1.083 1.443.87 2.822-7.22-6.235-15.112-10.583-23.841-13.29-8.795-2.725-17.803-4.054-26.959-3.61-.607 1.575.263 2.56.755 3.593 2.822 5.841 6.465 11.124 10.977 15.784 13.323 13.734 29.797 19.1 48.617 18.033 2.232-.132 3.905-.18 5.448 2.1 10.648 15.588 22.84 29.912 36.245 43.202.59.59 1.1 1.28 1.657 1.92-20.264-12.126-41.512-13.586-64.09-7.663 1.789 3.15 4.004 5.284 6.219 7.417 11.765 11.338 25.613 18.016 42.087 18.787 9.795.46 19.23-1.28 28.353-4.693 1.46-.541 2.362-.46 3.478.542 1.854 1.69 3.79 3.265 5.726 4.84 21.265 17.278 43.908 32.373 69.21 43.186 1.28.541 2.51 1.23 3.757 1.838-21.757-2.38-43.4-3.43-65.14-.624.837 4.857.985 4.923 5.07 4.512 21.445-2.182 42.841-1.657 64.106 1.87 5.136.854 10.14 1.822 14.669 5.022 18.656 13.159 34.883 28.796 49.076 46.615 2.281 2.871 1.543 2.838 5.202 1.427.492-.197 1.197-.295 1.312-1.427-12.617-16.72-27.926-31.126-44.416-44.433 1.903-.197 3.363.64 4.89 1.247 27.089 10.895 55.426 16.375 84.353 19.132 2.674.262 4.07.968 5.234 3.593 12.831 29.026 38.477 39.904 64.566 38.575 1.132-.049 2.33 0 3.363-1.033-11.19-20.117-27.204-33.817-49.83-39.347 1.098-.279 2.034-.295 2.985-.279 19.345.28 38.576-.951 57.675-4.135 1.87-.311 3.248.033 4.298 1.658.443.689 1.05 1.296 1.625 1.903 18.344 19.772 40.544 24.99 66.108 17.49.951-.278 2.182-.278 2.74-1.722-12.831-13.487-28.156-22.282-47.272-24.218.476-.558.575-.804.739-.853.902-.296 1.821-.542 2.74-.788 13.028-3.462 25.826-7.646 38.132-13.11 4.184-1.854 7.203-1.772 11.338.64 22.069 12.847 43.99 11.912 65.402-1.903 1.247-.804 2.675-1.526 3.397-3.069-2.461-1.739-5.07-2.904-7.68-4.052-2.51-1.1-5.053-2.133-7.645-3.003-2.708-.903-5.464-1.657-8.237-2.33s-5.612-1.017-8.467-1.313c-2.74-.295-5.464-.36-8.204-.344-2.707.016-5.398.787-8.154.262.968-.935 1.952-1.558 2.97-2.166 9.762-5.742 19.23-11.945 28.188-18.885 2.232-1.723 4.004-1.936 6.695-.935 21.61 8.007 40.692 3.773 57.132-12.34.886-.869 2.019-1.624 2.232-3.264-13.98-5.218-28.058-6.22-42.431-1.904.016-1.378.837-1.772 1.427-2.33 8.483-7.876 16.572-16.112 24.12-24.89 1.378-1.609 2.773-1.953 4.693-1.477 1.723.426 3.495.754 5.267.951 18.557 2.051 33.374-4.43 44.416-19.509.542-.722 1.33-1.427.92-2.773-13.127-2.97-26.024-2.198-38.707 3.462.246-1.493.968-2.133 1.526-2.871 5.283-7.056 10.402-14.242 15.079-21.724 1.41-2.248 2.904-2.872 5.513-2.576 15.8 1.854 29.977-5.694 37.377-19.706.476-.903 1.313-1.772.788-3.118-11.404-1.148-22.053 1.083-31.602 7.646-.525-.87-.214-1.28.016-1.673 4.365-7.663 8.614-15.391 12.552-23.267.558-1.116 1.411-1.854 2.429-2.527 15.144-10.19 19.853-24.841 17.934-42.267-.132-1.247-.542-2.477-.82-3.642-.493 0-.772-.082-.952.016-.82.492-1.641.968-2.396 1.542-13.208 9.829-20.264 22.808-20.018 39.445.033 2.1-.311 3.955-1.329 5.809-2.756 5.004-5.382 10.09-8.122 15.111-.41.755-.574 1.855-1.887 2.035.017-8.975-1.854-17.376-6.185-25.235-1.625.738-2.347 1.854-3.15 2.871-9.911 12.683-11.404 26.368-4.562 40.872 1.132 2.396.935 4.037-.509 6.137-4.48 6.465-8.942 12.946-13.717 19.197-.69.903-1.1 2.15-2.74 2.461 3.035-12.47 1.969-24.464-3.003-36.278-10.041 6.285-17.72 19.624-18.442 31.323-.493 8.024.968 15.67 4.266 22.955.87 1.936.64 3.183-.771 4.726-7.007 7.646-14.226 15.079-21.823 22.15-.378.361-.722.92-1.723.591 2.69-6.251 4.643-12.667 5.316-19.476.69-6.924.164-13.7-1.1-20.33-1.131-.41-1.722.131-2.296.492-11.256 6.925-19.46 16.326-23.365 29.157-2.626 8.648-2.642 17.393-.657 26.138.51 2.265.115 3.66-1.854 5.103-8.942 6.564-18.081 12.799-27.63 18.46-.608.36-1.199 1.164-2.134.59 12.52-15.39 15.276-36.967 13.324-43.94-2.265.328-4.3 1.312-6.334 2.264-15.456 7.17-26.614 18.229-31.405 34.982a52.006 52.006 0 00-1.92 17.687c.164 2.626-.82 3.758-3.1 4.742-11.076 4.742-22.332 8.91-33.916 12.257-.706.213-1.444.788-2.445-.082 12.962-9.074 20.986-21.478 25.76-36.245-1.509-.722-2.723-.492-3.888-.41-10.403.672-20.149 3.51-29.059 8.991-12.388 7.646-19.935 18.87-23.906 32.652-.574 2.018-1.493 2.97-3.544 3.249-11.584 1.575-23.185 2.756-34.867 3.003-.771.016-1.625.311-2.708-.558 13.16-6.383 23.234-15.916 31.044-27.992-1.247-1.001-2.362-1.067-3.38-1.247-9.008-1.608-18.016-1.74-26.99.114-16.113 3.315-28.55 12.126-37.624 25.712-1.297 1.936-2.56 2.658-4.923 2.379a415.781 415.781 0 01-66.846-13.258c-11.338-3.232-22.413-7.35-33.965-9.779-2.97-.623-5.627-1.723-8.154-3.396-2.97-1.97-6.055-3.79-9.189-5.53-10.402-5.808-21.035-11.19-31.224-17.36-15.522-9.385-30.404-19.673-44.45-31.158-3.773-3.085-3.773-3.069-2.707-7.614 1.214-5.119 1.92-10.337 1.657-15.587-1.05-20.412-11.37-35.392-27.713-46.747-2.001-1.394-2.248-1.247-2.822 1.034-1.788 6.973-2.494 14.045-2.363 21.248.099 5.89 1.411 11.568 2.658 17.262-.065.016-.18.147-.311.262zm79.629-260.92c-4.677-.607-9.304-.853-13.93-1.148-17.508-1.116-34.999-1.297-52.506.065-3.544.28-3.56.296-4.545 3.626-10.485 35.18-12.077 70.8-4.677 106.718 8.812 42.825 28.468 80.17 58.167 112.149 54.901 59.134 137.515 89.112 218.538 79.579 25.022-2.938 49.126-9.304 72.13-19.542 45.991-20.461 82.417-51.833 108.063-95.38 2.379-4.037 2.166-3.101-.82-6.17-14.26-14.586-29.453-28.156-45.352-40.954-.558-.443-1.133-.87-1.69-1.329-.837-.69-1.494-.525-2.019.394-.41.722-.853 1.444-1.28 2.15-8.614 14.143-19.016 26.826-31.47 37.754-34.408 30.207-74.82 44.761-120.353 45.5-16.752.278-33.292-1.904-49.47-6.285-42.76-11.6-77.954-34.506-104.076-70.57-19.345-26.73-29.977-56.707-31.799-89.687-.968-17.507 1.116-34.72 5.891-51.603.492-1.657 1.313-3.298 1.198-5.267zm9.024 396.483c-1.985-.853-3.167-1.378-4.38-1.87-16.146-6.449-32.456-12.454-48.962-17.95-41.972-13.997-84.715-24.99-128.114-33.506-22.315-4.38-44.761-8.09-67.322-11.01-10.518-1.362-21.035-2.625-31.585-3.626-3.709-.344-3.741-.41-4.496-3.33-7.942-30.52-13.176-61.481-15.161-92.952-1.28-20.379-.558-40.741 1.46-61.038 2.576-25.744 7.072-51.193 13.077-76.346 15.588-65.255 38.854-127.77 67.667-188.282 1.64-3.446 3.364-6.842 5.234-10.157 2.773-4.955 6.94-7.826 12.618-9.024 30.847-6.514 62.104-9.812 93.493-11.929 19.624-1.329 39.264-2.198 58.92-2.264 2.101 0 3.561-.82 5.07-2.133 52.851-45.663 114.594-68.307 184.05-70.62 22.954-.755 45.696 1.444 68.175 6.202 59.298 12.569 110.836 39.675 152.988 83.386 48.305 50.11 74.886 109.9 77.396 179.88.099 2.626 1.05 4.414 2.773 6.236 26.122 27.5 51.046 56.017 73.689 86.486 8.105 10.912 15.719 22.151 22.938 33.67 2.79 4.446 3.446 9.057 1.936 14.012a67.344 67.344 0 01-1.887 5.382c-7.482 18.82-15.8 37.279-24.628 55.508-23.923 49.437-51.127 96.938-83.632 141.29-18.705 25.514-39.034 49.65-62.104 71.374-30.666 28.862-65.402 51.98-102.304 72.015-2.477 1.345-2.51 1.296-4.922-.738-46.172-39.035-95.61-73.41-148.017-103.502-29.682-17.032-60.184-32.422-91.655-45.877-1.247-.525-2.428-1.46-4.2-1.198.426 2.478 1.083 4.808 1.148 7.138.066 3.019 1.723 4.282 4.2 5.43a1318.205 1318.205 0 0174.805 38.133c33.111 18.213 65.5 37.607 96.2 59.725 25.76 18.558 49.864 39.117 72.966 60.874 2.757 2.592 2.232 2.69 5.366.837 35.654-20.937 69.127-44.91 99.711-72.803 27.139-24.76 50.848-52.555 72.409-82.22 30.436-41.873 55.934-86.634 78.036-133.38 12.437-26.286 23.693-53.08 33.374-80.499.722-2.067 1.116-3.839-.131-6.07-14.67-25.843-30.634-50.816-49.011-74.197-15.686-19.969-32.652-38.871-49.962-57.429-1.543-1.657-2.314-3.33-2.462-5.644-1.247-20.034-4.463-39.773-10.14-59.036-19.492-66.124-57.723-119.056-113.953-158.55-62.154-43.646-131.576-62.203-207.365-56.69-19.296 1.395-38.28 4.742-56.952 9.812-41.266 11.19-78.66 29.994-111.87 57.001-1.558 1.28-3.15 1.887-5.168 1.92-7.269.131-14.538.377-21.79.64-26.089.952-52.112 2.543-77.954 6.514a695.02 695.02 0 00-65.78 13.389c-1.936.492-3.183 1.378-3.987 3.134-.394.87-.92 1.673-1.379 2.51-24.989 46.09-45.68 94.035-62.252 143.767-16.818 50.455-28.943 101.91-33.012 155.105-1.658 21.675-1.658 43.334-.247 65.009 1.46 22.364 4.2 44.58 8.352 66.616 1.28 6.793 2.806 13.52 4.086 20.313.36 1.87 1.181 2.724 3.052 2.642.705-.033 1.427.05 2.15.082 18.934.722 37.803 2.215 56.656 4.282 22.988 2.51 45.778 6.268 68.372 11.174 45.319 9.861 89.719 22.955 133.594 37.936 9.467 3.232 18.87 6.645 28.304 9.976 1.198.426 2.379 1.247 3.724.377 2.691-1.887 5.448-3.708 8.795-5.907zM734.24 275.737c.984-.92 1.23-1.871 1.608-2.74 20.493-46.928 40.987-93.87 61.464-140.814 1.28-2.954 1.28-2.97-1.017-5.103-7.975-7.367-16.392-14.21-25.269-20.46-32.8-23.087-69.045-37.706-108.571-44.253-9.648-1.592-19.362-2.51-29.125-3.052-1.952-.115-3.232.377-3.757 2.346-.115.46-.394.87-.59 1.297-21.183 46.106-42.35 92.212-63.516 138.335-.492 1.05-1.247 2.051-1.165 3.298.197.18.344.41.541.476 8.122 2.363 16.244 4.677 24.35 7.072 1.41.41 2.215-.115 3.035-1.148a59.292 59.292 0 017.121-7.515c23.907-21.2 60.726-22.824 86.946-3.462 18.295 13.503 27.631 31.716 27.024 54.671-.065 2.38-.443 4.742-.754 7.105-.164 1.197.13 2.034 1.247 2.641 6.776 3.725 13.52 7.482 20.428 11.306zM237.273 740.985c-.066 1.51.902 2.51 1.526 3.61a788.545 788.545 0 0061.415 92.525c16.162 20.97 33.226 41.151 51.767 60.07 1.723 1.755 3.479 2.51 5.94 2.494 11.551-.05 23.102-.18 34.654-.804 13.57-.739 27.106-1.772 40.61-3.183a832.705 832.705 0 0050.602-6.875c22.79-3.807 45.4-8.45 67.798-14.16.754-.197 1.723-.066 2.084-1.067-.132-.197-.214-.46-.378-.59-2.05-1.445-4.085-2.889-6.17-4.267-29.156-19.296-59.774-35.983-91.08-51.472a969.118 969.118 0 00-35.228-16.572c-.952-.426-2.002-1.41-2.97-.853-3.003 1.74-6.038 3.462-8.729 6.022 10.55 5.02 20.789 9.795 30.93 14.767 10.27 5.02 20.476 10.173 30.65 15.39 9.975 5.12 19.984 10.19 30.452 16.064-2.313.41-3.708.706-5.119.886-15.587 2.1-31.175 3.954-46.861 5.267-20.904 1.756-41.84 2.74-62.826 2.609-9.55-.066-17.557-3.33-24.317-10.173-25.679-26.023-48.699-54.228-70.03-83.878-.426-.59-1.246-1.115-.754-2.33 32.439 10.108 64.647 20.707 96.676 32.75.164-3.002-.739-5.283-.837-7.645-.115-2.544-1.345-3.873-3.823-4.824-13.455-5.136-26.926-10.239-40.544-14.948-33.325-11.551-67.06-21.659-101.664-28.632-1.214-.246-2.461-.755-3.774-.18zm257.163-11.255c-.099-.607-.23-1.428-.361-2.248-3.709-21.823-7.4-43.646-11.125-65.468-1.263-7.384-2.412-14.8-3.889-22.151-1.296-6.432-7.843-9.205-13.57-6.005-.836.46-1.607 1.017-2.411 1.542-23.989 15.538-47.96 31.077-71.95 46.615-7.252 4.71-7.81 6.186-6.398 14.735 3.527 21.38 6.957 42.759 10.435 64.138 1.165 7.17 2.248 14.341 3.544 21.495 1.034 5.71 6.481 8.811 11.847 6.99 1.493-.509 2.756-1.411 4.036-2.265 24.662-16.26 49.306-32.504 73.968-48.764.886-.59 1.804-1.165 2.625-1.838 2.05-1.706 3.052-3.938 3.249-6.776zm139.812-372.282c21.002-.279 37-4.282 51.751-12.863 14.127-8.204 25.22-19.428 33.013-33.817 1.395-2.576 1.378-2.675-1.149-4.102-6.628-3.741-13.34-7.384-19.935-11.174-1.772-1.018-2.839-.706-4.332.623-17.31 15.342-37.509 20.74-60.053 16.31-33.571-6.596-55-34.736-54.639-64.188.033-2.79-.016-2.855-2.74-3.643a2425.485 2425.485 0 00-23.66-6.842c-3.266-.935-3.331-.886-4.48 2.478-8.007 23.381-6.235 46.205 5.694 67.666 18.311 32.931 47.665 47.846 80.53 49.552zM404.388 187.74c1.395.657 2.462.394 3.479.345 4.036-.213 8.073-.574 12.126-.69 17.146-.508 34.292-.31 51.39 1.248 4.446.41 3.642.377 5.283-3.118 16.424-34.9 32.832-69.8 49.224-104.7.492-1.033 1.198-2.017 1.181-3.264-10.747 1.394-48.108 23.414-66.879 39.395-23.283 19.838-41.955 43.301-55.804 70.784zm454.7 183.606c9.286-25.564 13.634-51.817 13.093-78.923-.558-27.007-5.956-52.981-16.113-78.692-.788 1.624-1.296 2.56-1.706 3.527-14.98 35.163-29.961 70.342-44.942 105.504-1.395 3.298-1.395 3.298 1.395 5.546 15.866 12.798 31.06 26.367 45.319 40.954.705.755 1.296 1.723 2.953 2.084zM645.093 214.814c-3.675.114-6.973.41-10.222 1.23-24.186 6.071-34.195 33.276-19.493 53.014 11.502 15.44 33.636 19.969 50.258 10.288 16.654-9.697 21.888-30.453 11.518-46.713-7.498-11.748-18.672-17.212-32.061-17.82zm-56.772 561.088c-.033-.246-.131-1.313-.312-2.363-1.87-10.665-3.74-21.314-5.627-31.98-1.116-6.316-2.166-12.666-3.446-18.95-.837-4.135-4.496-5.645-8.204-3.627-.837.46-1.608 1.034-2.396 1.56-9.713 6.464-19.41 12.929-29.124 19.393-4.561 3.036-9.106 6.071-13.668 9.09-2.313 1.526-3.314 3.545-2.822 6.383 2.953 16.999 5.825 33.998 8.778 50.98 1.23 7.055 4.677 8.45 10.682 4.397 14.029-9.418 28.041-18.87 42.054-28.304.689-.46 1.378-.935 2.05-1.427 1.445-1.083 2.166-2.51 2.035-5.152zM283.544 654.433c.049.476.065.952.13 1.428 2.626 17.294 5.219 34.588 7.91 51.85.705 4.495 4.56 6.152 8.58 3.92.624-.344 1.215-.754 1.806-1.148 14.39-9.32 28.714-18.722 43.186-27.894 3.527-2.247 4.627-4.807 3.938-8.91-2.675-15.948-5.333-31.913-7.499-47.943-.902-6.63-5.201-8.779-10.911-4.972-14.046 9.385-28.386 18.328-42.612 27.45-.804.51-1.608 1.018-2.379 1.592-1.51 1.149-2.264 2.691-2.15 4.627zm328.028 157.632c.164 1.378.23 2.215.361 3.035 1.28 7.86 2.576 15.736 3.856 23.595.59 3.643 1.1 7.302 1.789 10.911.656 3.38 3.134 4.381 6.103 2.593.608-.361 1.182-.804 1.756-1.214 8.368-5.89 16.736-11.781 25.104-17.688 6.449-4.562 6.235-3.43 4.874-11.6-1.723-10.436-3.397-20.888-5.169-31.323-.738-4.332-3.232-5.382-6.842-2.888-9.878 6.842-19.706 13.766-29.567 20.625-1.608 1.115-2.51 2.494-2.265 3.954zm-411.906-170.89c.377 2.921.673 5.284.984 7.63 1.198 9.205 2.347 18.41 3.594 27.599.508 3.84 2.953 4.922 6.382 2.937.41-.247.804-.525 1.198-.788 9.632-6.35 19.198-12.831 28.944-19 3.15-1.986 3.905-4.3 3.364-7.745-1.083-6.81-1.871-13.668-2.79-20.51-.607-4.48-1.116-8.975-1.903-13.422-.542-3.052-2.822-4.003-5.612-2.625-.426.213-.82.492-1.214.755-10.058 6.58-20.083 13.192-30.174 19.722-2.297 1.493-3.43 3.282-2.773 5.448z"></path><path d="M787.729 795.542c3.314.328 6.186 1.608 8.68 3.823 4.184 3.725 8.105 7.728 11.912 11.847 20.97 22.66 41.102 46.024 60.365 70.144 1.64 2.051 3.314 4.07 4.545 6.4 3.183 6.054.36 11.764-6.465 12.617-8.745 1.083-17.524 1.838-26.302 2.724-11.141 1.132-22.266 2.33-33.423 3.298-2.445.213-3.446 1.132-4.168 3.396-5.43 16.638-10.96 33.243-16.523 49.831-1.591 4.742-3.363 9.418-5.102 14.111-.903 2.461-1.97 4.857-3.528 6.99-3.364 4.594-6.974 4.955-11.076 1.116-.77-.739-1.526-1.51-2.165-2.38-11.683-15.981-24.81-30.797-37.378-46.057-2.658-3.216-5.365-6.383-7.925-9.664-3.643-4.66-2.986-7.761 1.592-11.535 5.972-4.922 11.699-10.14 17.523-15.243 14.521-12.716 29.026-25.449 43.547-38.165 1.264-1.1 2.51-2.215 3.462-3.593 1.805-2.642 2.691-5.497 2.166-8.762-2.248-14.111-4.43-28.222-6.612-42.35-.837-5.151 2.15-8.827 6.875-8.548zM95.377 519.198c8.843-.114 19.443-.508 30.059-.082 3.068.115 5.874.936 8.434 2.577 4.397 2.838 4.61 7.711.525 10.993-.64.525-1.378.952-2.068 1.411-11.485 7.679-22.922 15.423-34.506 22.971-4.48 2.904-6.514 6.908-6.35 11.994.804 25.843 1.1 51.686 1.428 77.545.016 1.296.295 2.592.394 3.905.262 4.036-1.526 6.76-5.53 7.498-3.724.69-7.564.92-11.354 1.182-19 1.361-38.034 2.526-56.985 4.446-2.609.263-5.185.755-7.794 1.001-8.073.804-11.14-3.134-8.516-10.813 1.05-3.052 2.61-5.874 4.119-8.712 9.845-18.246 20.346-36.115 30.716-54.048.18-.312.36-.624.541-.92 1.723-2.97 1.723-2.986-.295-5.562a1448.728 1448.728 0 00-6.219-7.843c-9.55-12.043-19.082-24.087-28.632-36.146-.525-.657-1.066-1.297-1.542-1.97-3.495-4.922-1.756-10.599 3.921-12.748 3.052-1.149 6.284-1.346 9.484-1.641 8.302-.788 16.605-1.526 24.924-2.084 17.786-1.198 35.638-2.199 55.246-2.954zM381.795 481.706c.279.246.426.509.049.755-.033.016-.263-.263-.41-.394.131-.115.246-.246.36-.36z"></path></g></svg>