<svg xmlns="http://www.w3.org/2000/svg" width="45" height="45" viewBox="0 0 45 45" aria-labelledby="facebook-icon-label"><title id="facebook-icon-label">Facebook</title><circle class="icon__background" cx="22.5" cy="22.5" r="22.5"></circle><g class="icon__logo"><path d="M31.8410005,12 L13.1589995,12 C12.5188352,12 12,12.5188332 12,13.1589951 L12,31.8409262 C12,32.4810094 12.5188352,33 13.1589995,33 L23.2168014,33 L23.2168014,24.8676783 L20.480052,24.8676783 L20.480052,21.698342 L23.2168014,21.698342 L23.2168014,19.3610746 C23.2168014,16.648727 24.8733917,15.1717754 27.2930489,15.1717754 C28.4521271,15.1717754 29.4482529,15.2580116 29.7385142,15.2965661 L29.7385142,18.1311864 L28.0603648,18.1319732 C26.7444716,18.1319732 26.4896176,18.7572641 26.4896176,19.6748609 L26.4896176,21.698342 L29.6280433,21.698342 L29.2194429,24.8676783 L26.4896176,24.8676783 L26.4896176,33 L31.8410005,33 C32.4810861,33 33,32.4810094 33,31.8409262 L33,13.1589951 C33,12.5188332 32.4810861,12 31.8410005,12"></path></g></svg>