<svg xmlns="http://www.w3.org/2000/svg" width="45" height="45" viewBox="0 0 45 45" aria-labelledby="instagram-icon-label"><title id="instagram-icon-label">Instagram</title><circle class="icon__background" cx="22.5" cy="22.5" r="22.5"></circle><g class="icon__logo"><g transform="translate(11 11)"><path d="M11.496372,0.00724613861 C8.37416766,0.00724613861 7.98262004,0.0204540594 6.75645536,0.0762916832 C5.53275496,0.131992673 4.69708829,0.325966931 3.96578869,0.609618416 C3.20984623,0.902788713 2.5686756,1.2951095 1.92955853,1.93296099 C1.29039583,2.57085802 0.897342262,3.21071347 0.603544643,3.96515901 C0.319330357,4.6950105 0.125016865,5.52902238 0.0691597222,6.7502996 C0.0132113095,7.97408178 2.28174603e-05,8.36476297 2.28174603e-05,11.4808303 C2.28174603e-05,14.5968976 0.0132113095,14.9876244 0.0691597222,16.2114065 C0.125016865,17.4326382 0.319330357,18.2666956 0.603544643,18.9965016 C0.897342262,19.7509471 1.29039583,20.3908481 1.92955853,21.0286996 C2.5686756,21.6665966 3.20984623,22.0588719 3.96578869,22.3521333 C4.69708829,22.6357392 5.53275496,22.8297135 6.75645536,22.88546 C7.98262004,22.9412521 8.37416766,22.95446 11.496372,22.95446 C14.618622,22.95446 15.0100784,22.9412521 16.2362887,22.88546 C17.4599891,22.8297135 18.2956558,22.6357392 19.0269554,22.3521333 C19.7829435,22.0588719 20.4240685,21.6665966 21.0631855,21.0286996 C21.7023482,20.3908481 22.0954018,19.7509927 22.3891994,18.9965016 C22.6734137,18.2666956 22.8677728,17.4326382 22.9235843,16.2114065 C22.9795327,14.9876244 22.9927669,14.5968976 22.9927669,11.4808303 C22.9927669,8.36480851 22.9795327,7.97408178 22.9235843,6.7502996 C22.8677728,5.52902238 22.6734137,4.6950105 22.3891994,3.96515901 C22.0954018,3.21071347 21.7023482,2.57085802 21.0631855,1.93296099 C20.4240685,1.2951095 19.7829435,0.902788713 19.0269554,0.609618416 C18.2956558,0.325966931 17.4599891,0.131992673 16.2362887,0.0762916832 C15.0100784,0.0204540594 14.618622,0.00724613861 11.496372,0.00724613861 M11.496372,2.07455901 C14.5660506,2.07455901 14.929624,2.08621842 16.14187,2.14141842 C17.262755,2.19247386 17.8714792,2.37938871 18.2765804,2.53651743 C18.8132014,2.74465604 19.1962153,2.99328376 19.5984871,3.39475901 C20.0007589,3.7962798 20.24988,4.1784897 20.4584772,4.71404812 C20.615872,5.11834713 20.8031577,5.72586594 20.8543145,6.84453129 C20.9095784,8.05437683 20.9213065,8.41727584 20.9213065,11.4808303 C20.9213065,14.5444303 20.9095784,14.9073293 20.8543145,16.1171293 C20.8031577,17.2358402 20.615872,17.843359 20.4584772,18.247658 C20.24988,18.7831709 20.0007589,19.1654263 19.5984871,19.5669016 C19.1962153,19.9684224 18.8132014,20.2170501 18.2765804,20.4251887 C17.8714792,20.5822719 17.262755,20.7692323 16.14187,20.8202422 C14.9298065,20.8754422 14.5662788,20.8871471 11.496372,20.8871471 C8.42646528,20.8871471 8.0629375,20.8754422 6.85087401,20.8202422 C5.72998909,20.7692323 5.12121925,20.5822719 4.71611806,20.4251887 C4.17954266,20.2170501 3.79652877,19.9684224 3.39425694,19.5669016 C2.99198512,19.1654263 2.74281845,18.7831709 2.53426687,18.247658 C2.37687202,17.843359 2.18958631,17.2358402 2.13842956,16.1171749 C2.08312004,14.9073293 2.0714375,14.5444303 2.0714375,11.4808303 C2.0714375,8.41727584 2.08312004,8.05437683 2.13842956,6.84453129 C2.18958631,5.72586594 2.37687202,5.11834713 2.53426687,4.71404812 C2.74281845,4.1784897 2.99198512,3.7962798 3.39425694,3.39480455 C3.79652877,2.99328376 4.17954266,2.74465604 4.71611806,2.53651743 C5.12121925,2.37938871 5.72998909,2.19247386 6.85082837,2.14141842 C8.06312004,2.08621842 8.42669345,2.07455901 11.496372,2.07455901" transform="translate(0 .038)"></path><path d="M11.496372 15.3436917C9.37996131 15.3436917 7.6642252 13.6313531 7.6642252 11.5191333 7.6642252 9.40691347 9.37996131 7.6946204 11.496372 7.6946204 13.6127827 7.6946204 15.3285188 9.40691347 15.3285188 11.5191333 15.3285188 13.6313531 13.6127827 15.3436917 11.496372 15.3436917M11.496372 5.62730752C8.23593948 5.62730752 5.59281052 8.26515703 5.59281052 11.5191333 5.59281052 14.773155 8.23593948 17.4110046 11.496372 17.4110046 14.7568046 17.4110046 17.3998879 14.773155 17.3998879 11.5191333 17.3998879 8.26515703 14.7568046 5.62730752 11.496372 5.62730752M19.0127218 5.3945202C19.0127218 6.15493208 18.3950988 6.77133208 17.6331782 6.77133208 16.8712575 6.77133208 16.2535889 6.15493208 16.2535889 5.3945202 16.2535889 4.63410832 16.8712575 4.01770832 17.6331782 4.01770832 18.3950988 4.01770832 19.0127218 4.63410832 19.0127218 5.3945202"></path></g></g></svg>