<svg width="219" height="24" viewBox="0 0 219 24" xmlns="http://www.w3.org/2000/svg" xmlns:xlink="http://www.w3.org/1999/xlink" aria-labelledby="tpc-title"><defs><path id="a" d="M0 0h88.29v19.641H0z"/><path id="c" d="M91.822 22.145H0V0h91.822z"/><path id="e" d="M0 18.883V0h36.947v18.883z"/></defs><g fill="none" fill-rule="evenodd"><g transform="translate(37.45 .157)"><mask id="b" fill="#fff"><use xlink:href="#a"/></mask><path d="M82.341 4.928a7.17 7.17 0 00-1.84.225h-6.056c-.52 0-.956.377-1.048.872-1.228-.699-2.727-1.097-4.41-1.097-2.26 0-4.183.712-5.577 1.924-.938-1.276-2.433-1.924-4.477-1.924-1.27 0-2.44.323-3.426.945-.896-.613-2.013-.945-3.251-.945-.65 0-1.263.073-1.834.225H45.46L44.417.82a1.052 1.052 0 00-1.319-.777l-8.982 2.466c-.564.16-.898.741-.745 1.31.15.566.362 1.335.362 1.335H30.35V1.832c0-.587-.475-1.073-1.068-1.073H23.7c-.591 0-1.071.486-1.071 1.073v4.182c-1.228-.697-2.718-1.086-4.384-1.086-1.55 0-2.942.332-4.114.94-.737-2.06-2.732-4.11-7.744-4.11h-5.32C.473 1.758 0 2.238 0 2.824v15.521c0 .59.473 1.068 1.067 1.068h5.697c.586 0 1.066-.477 1.066-1.068v-3.638a9.137 9.137 0 002.685-.564c.801 3.313 3.756 5.498 7.73 5.498 1.68 0 3.175-.393 4.407-1.093.095.49.524.865 1.048.865h14.2a9.539 9.539 0 002.1.228c.878 0 1.707-.073 2.488-.228h21.041c.522 0 .958-.375 1.05-.869 1.227.704 2.722 1.097 4.407 1.097 1.684 0 3.183-.393 4.41-1.097a1.07 1.07 0 001.05.87H87.22a1.07 1.07 0 001.068-1.069v-7.294c0-3.668-2.39-6.123-5.948-6.123" fill="#000" mask="url(#b)"/></g><g transform="translate(126.292 1.75)"><mask id="d" fill="#fff"><use xlink:href="#c"/></mask><path d="M90.727 3.632h-5.798c-.437 0-.891.325-1.015.743-.135.414-.325 1.013-.325 1.013l-.338-1.026c-.133-.41-.586-.73-1.014-.73h-6.332a6.88 6.88 0 00-1.79-.23c-.652 0-1.265.073-1.84.225H66.22c-.425 0-.787.25-.962.613-1.046-.544-2.318-.838-3.796-.838-1.814 0-3.328.272-4.793.856l-1.309.537c-1.013-.86-2.316-1.393-3.85-1.393-.649 0-1.28.08-1.859.23h-6.156c-.3 0-.577.13-.771.334-.788-.374-1.73-.564-2.84-.564-1.279 0-2.447.323-3.43.944-.897-.613-2.01-.944-3.253-.944-.643 0-1.27.073-1.836.225h-6.053c-.527 0-.96.377-1.049.872-1.232-.7-2.723-1.097-4.406-1.097-1.54 0-2.922.331-4.083.924l.213-2.163c.055-.489-.288-.993-.757-1.137-.465-.132-.843-.248-.843-.248C13.16.418 11.537 0 9.803 0 3.845 0 0 3.579 0 9.117c0 6.216 4.93 8.998 9.825 8.998 2.05 0 3.373-.323 4.433-.586l1.466-.365c1.177.61 2.573.951 4.132.951 1.683 0 3.174-.393 4.406-1.093.089.49.522.865 1.049.865h17.122v2.96c0 .6.478 1.07 1.061 1.07h5.599c.584 0 1.057-.47 1.057-1.07v-2.811c.347.055.706.08 1.064.08 1.732 0 3.225-.591 4.36-1.627 1.046 1.02 2.565 1.626 4.397 1.626.61 0 1.185-.073 1.725-.228h14.786l-.236 2.652a1.112 1.112 0 00.851 1.137c.505.104.916.193.916.193a11.76 11.76 0 002.601.276c4.444 0 5.749-3.404 6.704-5.89l4.402-11.17c.316-.805-.126-1.453-.993-1.453M7.945 9.117c0-.515.146-2.203 2.053-2.203.854 0 1.615.21 2.469.68l.097.046a7.527 7.527 0 00-.66 3.13c0 .064.016.128.016.194-.575.148-1.137.246-1.63.246-1.07 0-2.345-.368-2.345-2.093" fill="#000" mask="url(#d)"/></g><g transform="translate(0 .954)"><mask id="f" fill="#fff"><use xlink:href="#e"/></mask><path d="M29.765 4.17c-2.163 0-3.999.727-5.317 1.979-1.044-1.252-2.628-1.98-4.563-1.98-.43 0-.845.033-1.246.115V1.073A1.073 1.073 0 0017.571 0h-5.583a1.06 1.06 0 00-1.055 1H1.07C.476 1 0 1.48 0 2.066v4.782C0 7.432.476 7.91 1.069 7.91h2.229v9.678c0 .59.48 1.068 1.073 1.068h20.4c.522 0 .953-.378 1.044-.87 1.23.704 2.725 1.098 4.41 1.098 1.64 0 3.139-.268 4.444-.779l.677-.265c.376-.15.674-.59.674-.991v-2.183h.927v-2.763c0-4.771-2.756-7.733-7.182-7.733" fill="#000" mask="url(#f)"/></g><path d="M140.418 17.065c-1.024.252-2.153.54-3.97.54-3.571 0-7.698-1.805-7.698-6.868 0-4.665 3.256-6.987 7.67-6.987 1.363 0 2.684.305 3.971.694l-.285 2.892c-1.148-.633-2.259-.932-3.49-.932-2.533 0-4.186 1.84-4.186 4.333 0 2.635 1.865 4.216 4.477 4.216 1.168 0 2.358-.303 3.338-.686l.173 2.798" fill="#FFF"/><path d="M140 12.742c0-3.322 2.51-5.242 5.815-5.242 3.298 0 5.815 1.92 5.815 5.242 0 3.298-2.517 5.216-5.815 5.216-3.304 0-5.815-1.918-5.815-5.216m8.058 0c0-1.495-.653-2.82-2.243-2.82-1.592 0-2.243 1.325-2.243 2.82 0 1.48.65 2.805 2.243 2.805 1.59 0 2.243-1.325 2.243-2.805m4.442-5.007h3.143v1.847h.047c.683-1.445 2.065-2.082 3.638-2.082 1.427 0 2.593.615 3.128 1.92.812-1.34 2.13-1.92 3.548-1.92 2.875 0 3.532 1.637 3.532 4.342v5.886h-3.45v-5.375c0-1.124-.403-1.975-1.378-1.975-1.237 0-1.962.977-1.962 3.13v4.22h-3.458v-5.375c0-1.124-.4-1.975-1.378-1.975-1.22 0-1.953.977-1.953 3.13v4.22H152.5V7.735zm18.75 0h3.185V9.53h.033c.697-1.394 2.154-2.031 3.73-2.031 2.764 0 4.282 2.623 4.282 5.048 0 2.953-1.6 5.41-4.58 5.41-1.204 0-2.503-.44-3.16-1.628h-.033v5.432h-3.457V7.735zm5.563 2.41c-1.263 0-2.106 1.117-2.106 2.615 0 1.462.958 2.546 2.106 2.546 1.305 0 2.09-1.084 2.09-2.685 0-1.323-.746-2.476-2.09-2.476zm12.714 7.585c-.026-.533-.075-1.055-.075-1.575h-.042c-.785 1.25-1.745 1.805-3.157 1.805-1.983 0-3.753-.978-3.753-3.141 0-3.05 3.32-3.415 5.165-3.415.557 0 1.17.053 1.612.13-.02-1.362-1.04-1.727-2.285-1.727-1.112 0-2.225.21-3.184.748l-.056-2.343c1.228-.497 2.513-.712 3.99-.712 2.555 0 4.758 1.1 4.758 4.145v3.732c0 .778.038 1.565.197 2.353h-3.17zm-2.384-2.075c1.311 0 2.134-1.183 2.134-2.356-.442-.015-.942-.06-1.457-.06-1.175 0-2.095.364-2.095 1.328 0 .688.617 1.088 1.418 1.088zm6.607-7.92h3.14v1.847h.042c.697-1.445 2.073-2.082 3.648-2.082 2.716 0 3.818 1.92 3.818 3.995v6.233h-3.455V12.89c0-1.877-.652-2.512-1.59-2.512-1.418 0-2.15.977-2.15 3.13v4.22h-3.453V7.735z" fill="#FFF"/><path d="M204.69 18.891c.46.148.88.208 1.36.208.845 0 1.5-.493 1.743-1.376L203.75 7.5h3.718l2.152 6.523h.035l2.053-6.523h3.457l-3.667 9.299c-.982 2.514-1.727 4.954-4.884 4.954-.73 0-1.442-.08-2.154-.228l.23-2.634zM40 3.75h4.253c4.093 0 6.006 1.374 6.006 4.386 0 2.707-1.971 4.327-5.313 4.327h-1.38v4.675H40V3.75zm3.566 6.18h.922c1.23 0 2.203-.447 2.203-1.849 0-1.356-.973-1.8-2.203-1.8h-.922V9.93zM50 12.742C50 9.42 52.51 7.5 55.813 7.5c3.298 0 5.81 1.92 5.81 5.242 0 3.298-2.512 5.216-5.81 5.216-3.303 0-5.813-1.918-5.813-5.216m8.058 0c0-1.495-.655-2.82-2.245-2.82-1.6 0-2.247 1.325-2.247 2.82 0 1.48.647 2.805 2.247 2.805 1.59 0 2.245-1.325 2.245-2.805M62.5 2.5h3.453v8.598h.044l2.88-4.203h3.773l-3.479 4.579 3.767 5.414h-4.18l-2.76-4.948h-.045v4.948H62.5zm11.65 3.366l6.968-1.393-.469-1.973-6.899 1.898z" fill="#FFF"/><path d="M75.993 13.74c.192 1.378 1.252 1.915 2.93 1.915.943 0 2.027-.208 3.062-.763v2.44c-1.12.44-2.387.628-3.67.628-3.298 0-5.815-1.933-5.815-5.233 0-3.305 2.247-5.227 5.353-5.227 3.705 0 5.047 2.625 5.047 5.61v.63h-6.907zm3.8-1.958c0-1.152-.538-2.092-1.918-2.092-1.254 0-1.842.94-1.92 2.092h3.838zm3.957-4.047h3.15v1.847h.042c.69-1.445 2.066-2.082 3.643-2.082 1.415 0 2.588.615 3.127 1.92.808-1.34 2.133-1.92 3.548-1.92 2.88 0 3.528 1.637 3.528 4.342v5.886H97.34v-5.375c0-1.124-.412-1.975-1.383-1.975-1.227 0-1.955.977-1.955 3.13v4.22h-3.457v-5.375c0-1.124-.4-1.975-1.376-1.975-1.23 0-1.964.977-1.964 3.13v4.22H83.75V7.735zm17.5 5.007c0-3.322 2.508-5.242 5.813-5.242 3.3 0 5.81 1.92 5.81 5.242 0 3.298-2.51 5.216-5.81 5.216-3.305 0-5.813-1.918-5.813-5.216m8.056 0c0-1.495-.653-2.82-2.243-2.82-1.595 0-2.239 1.325-2.239 2.82 0 1.48.644 2.805 2.239 2.805 1.59 0 2.243-1.325 2.243-2.805m4.444-5.007h3.145v1.847h.038c.688-1.445 2.07-2.082 3.648-2.082 2.72 0 3.815 1.92 3.815 3.995v6.233h-3.457V12.89c0-1.877-.648-2.512-1.59-2.512-1.421 0-2.146.977-2.146 3.13v4.22h-3.453V7.735zM5.796 6.398H2.5V3.75h10.17v2.648H9.366v10.738h-3.57z" fill="#FFF"/><path d="M12.5 2.5h3.457v5.868h.038c.75-1.033 1.844-1.708 3.34-1.708 2.72 0 3.817 1.92 3.817 3.998v6.23h-3.455v-4.837c0-1.876-.654-2.51-1.588-2.51-1.422 0-2.152.975-2.152 3.13v4.217H12.5V2.5zm15.99 11.24c.188 1.378 1.243 1.915 2.935 1.915a6.46 6.46 0 003.049-.763v2.44c-1.109.44-2.38.628-3.663.628-3.3 0-5.811-1.933-5.811-5.233C25 9.422 27.238 7.5 30.35 7.5c3.699 0 5.05 2.625 5.05 5.61v.63h-6.91zm3.796-1.958c0-1.152-.533-2.092-1.922-2.092-1.239 0-1.836.94-1.911 2.092h3.833z" fill="#FFF"/></g></svg>