<svg xmlns="http://www.w3.org/2000/svg" width="45" height="45" viewBox="0 0 45 45" aria-labelledby="pinterest-icon-label"><title id="pinterest-icon-label">Pinterest</title><circle class="icon__background" cx="22.5" cy="22.5" r="22.5"></circle><g class="icon__logo"><g transform="translate(9.646 6.641)"><mask id="pinterest-b" fill="#fff"><polygon id="pinterest-a" points=".354 .359 25.354 .359 25.354 32.359 .354 32.359"></polygon></mask><path d="M13.6104007,0.358520438 C4.79731291,0.358520438 0.353658537,6.61965358 0.353658537,11.8408647 C0.353658537,15.0020323 1.56143565,17.814502 4.15216166,18.8627815 C4.57685595,19.0346875 4.95756266,18.8688246 5.0808317,18.4027369 C5.16647125,18.0801399 5.36915151,17.2663829 5.45985157,16.9275853 C5.58389916,16.4666406 5.53575935,16.3050207 5.19294166,15.9032209 C4.44593125,15.0299333 3.96855567,13.8994938 3.96855567,12.2988521 C3.96855567,7.65366115 7.47588433,3.49525865 13.1012347,3.49525865 C18.0826016,3.49525865 20.8195636,6.51139265 20.8195636,10.5394192 C20.8195636,15.8388044 18.4524087,20.3118322 14.9384624,20.3118322 C12.9979482,20.3118322 11.5453198,18.7216052 12.0110173,16.771237 C12.5684529,14.4428556 13.6484195,11.9299678 13.6484195,10.2492233 C13.6484195,8.74475643 12.833676,7.48985542 11.1467067,7.48985542 C9.16311314,7.48985542 7.56956881,9.52315507 7.56956881,12.2472931 C7.56956881,13.9820395 8.16113046,15.1556805 8.16113046,15.1556805 C8.16113046,15.1556805 6.13108395,23.6788499 5.77529057,25.1713592 C5.06629893,28.1440345 5.66863041,31.7883905 5.71949511,32.1565033 C5.74933919,32.3744395 6.03233896,32.4263842 6.16040901,32.2614213 C6.34336622,32.0248416 8.70610938,29.1345834 9.50930452,26.2466396 C9.73650883,25.4287682 10.81401,21.1943773 10.81401,21.1943773 C11.4586422,22.4125056 13.3420635,23.4853431 15.3451205,23.4853431 C21.3080983,23.4853431 25.3536585,18.0985262 25.3536585,10.8883742 C25.3536585,5.43585506 20.6933102,0.358520438 13.6104007,0.358520438" mask="url(#pinterest-b)"></path></g></g></svg>