<svg xmlns="http://www.w3.org/2000/svg" xmlns:xlink="http://www.w3.org/1999/xlink" viewBox="0 0 360 360">
  <style>
    .glow {
      fill: #000;
      filter: url(#fill-1-a);
    }
    
    .fill {
      fill: #fafa00;
    }
  </style>
  <defs>
    <path id="fill-1-b" d="m224 356.424838c-73.137342 0-132.4247277-59.286527-132.4247277-132.422809s59.2873857-132.4268665 132.4247277-132.4268665 132.424728 59.2905845 132.424728 132.4268665-59.287386 132.422809-132.424728 132.422809m135.995768-63.583888-4.467858-9.95413c-.008116-.016232-.016232-.028406-.02029-.044638-1.367547-3.002876-1.619143-6.399374-.458554-9.487467 11.934579-31.749335 11.934579-66.960095 0-98.705372-1.160589-3.088093-.908993-6.488649.458554-9.487467.004058-.016232.012174-.032464.02029-.048696l4.467858-9.950072c1.60291-3.579105 1.395952-7.722263-.600584-11.098471-6.586135-11.13905-14.665613-21.64506-24.238436-31.217745-9.576881-9.572684-20.078987-17.6561035-31.222256-24.2421428-3.372198-1.9965072-7.515416-2.2034623-11.094573-.5965174l-9.954275 4.4677937c-.016232.0081159-.032464.0121739-.044638.0202897-3.00292 1.3634684-6.399467 1.6150608-9.487605.4544895-31.749795-11.9344063-66.957007-11.9344063-98.706802 0-3.088138 1.1605713-6.484685.9089789-9.487605-.4544895-.012174-.0081158-.028406-.0121738-.044638-.0202897l-9.954275-4.4677937c-3.579157-1.6069449-7.722375-1.3999898-11.098631.5965174-11.139211 6.5860393-21.641317 14.6694588-31.218198 24.2421428-9.572823 9.572685-17.6523013 20.078695-24.238436 31.217745-1.9965362 3.376208-2.2034943 7.519366-.5965261 11.098471l4.4638005 9.950072c.008116.016232.012174.032464.02029.048696 1.3675461 2.998818 1.6191421 6.399374.458554 9.487467-11.9345792 31.745277-11.9345792 66.956037 0 98.705372 1.1605881 3.088093.9089921 6.484591-.458554 9.487467-.008116.016232-.012174.028406-.02029.044638l-4.4638005 9.95413c-1.6069682 3.575047-1.4000101 7.718205.5965261 11.094413 6.5861347 11.143107 14.665613 21.64506 24.238436 31.217745 9.576881 9.576742 20.078987 17.656104 31.218198 24.242143 3.376256 1.996507 7.519474 2.199404 11.098631.596517l9.954275-4.467794c.016232-.004057.032464-.012173.044638-.020289 3.00292-1.363469 6.399467-1.615061 9.487605-.45449 31.749795 11.934407 66.957007 11.934407 98.706802 0 3.088138-1.160571 6.484685-.908979 9.487605.45449.012174.008116.028406.016232.044638.020289l9.954275 4.467794c3.579157 1.602887 7.722375 1.39999 11.094573-.596517 11.143269-6.586039 21.645375-14.665401 31.222256-24.242143 9.572823-9.572685 17.652301-20.074638 24.238436-31.217745 1.996536-3.376208 2.203494-7.519366.600584-11.094413"/>
    <filter id="fill-1-a" width="132.1%" height="132.1%" x="-16.1%" y="-16.1%">
      <feOffset in="SourceAlpha" result="shadowOffsetOuter1"/>
      <feGaussianBlur in="shadowOffsetOuter1" result="shadowBlurOuter1" stdDeviation="15"/>
      <feColorMatrix in="shadowBlurOuter1" values="0 0 0 0 0.980392157   0 0 0 0 0.980392157   0 0 0 0 0  0 0 0 0.503414554 0"/>
    </filter>
  </defs>
  <g fill="none" fill-rule="evenodd" transform="rotate(15 369.107 34.893)">
    <use class="glow"  xlink:href="#fill-1-b"/>
    <use class="fill" xlink:href="#fill-1-b"/>
  </g>
</svg>