<svg xmlns="http://www.w3.org/2000/svg" xmlns:xlink="http://www.w3.org/1999/xlink" width="268" height="228" viewBox="0 0 40 34"><path fill="#af4417" fill-rule="evenodd" d="m39.3193826 22.0976274-5.3095347 9.2529222c-1.2110029 2.0964703-3.7004191 3.106635-6.0414033 2.4515032l-13.1774383-3.4429478c-1.3507913-.3280593-2.5130128-1.1804822-3.2268296-2.3666949-.7138168-1.1862126-.9196977-2.6072865-.5716144-3.9455161l3.1828458-11.5821234c.3348022-1.1820036 1.2770206-2.0976343 2.4733857-2.4035911l7.7960274-8.20347873s1.8434123-2.18840687 3.2733252-1.81477643c.6772101.16541566 1.2595813.59351388 1.6170702 1.18870035.3574889.59518648.4603211 1.30788964.2855343 1.97896291-.1691204.61066933-.2185882.81954934-.2185882.81954934l-3.0078062 6.40887586c-.5652849 1.2041071 1.7651942 2.0871189 3.1710074 2.5006761l6.4379906 1.6811269c1.586928.3793141 2.900691 1.4808608 3.5443407 2.971812.6756012 1.4472697.5901915 3.1325512-.2283126 4.5049996zm-32.37894086 3.8400655c-.30514971 1.0490058-1.40080359 1.6598594-2.45984736 1.3714244l-2.98954403-.7813978c-.50941575-.1252141-.94715543-.4481803-1.21538653-.8967173-.26823111-.448537-.34459166-.985251-.21201548-1.4901894l3.67250747-13.3704461c.3049575-1.04915743 1.40077378-1.66010153 2.45984736-1.3714244l2.98954403.7809791c.50947741.1251123.9472907.4480593 1.2155399.8966265.2682491.4485672.3445577.9853365.2118621 1.4902802z"></path></svg>