<svg xmlns="http://www.w3.org/2000/svg" width="45" height="45" viewBox="0 0 45 45" aria-labelledby="twitter-icon-label"><title id="twitter-icon-label">Twitter</title><circle class="icon__background" cx="22.5" cy="22.5" r="22.5"></circle><g class="icon__logo"><path d="M30.850583,18.2346455 C30.8591617,18.4186328 30.8630043,18.6035992 30.8630043,18.7894558 C30.8630043,24.460217 26.5292298,31 18.6042766,31 C16.1707787,31 13.9068,30.2895971 12,29.0723613 C12.3372511,29.1119716 12.6801319,29.1318212 13.0277489,29.1318212 C15.0464298,29.1318212 16.9039915,28.4458966 18.3789064,27.2947075 C16.4929277,27.2598149 14.9023787,26.0189909 14.353966,24.3139707 C14.6163319,24.3639953 14.8862936,24.3914109 15.1638511,24.3914109 C15.5569532,24.3914109 15.9378128,24.3384489 16.2996383,24.2404469 C14.3283191,23.846926 12.8430383,22.1117307 12.8430383,20.0330391 C12.8430383,20.0142576 12.8430383,19.9962772 12.8440213,19.9782968 C13.4246936,20.3000744 14.0887404,20.4934969 14.7953234,20.5152158 C13.6387149,19.7462432 12.8780681,18.4318955 12.8780681,16.9429068 C12.8780681,16.156933 13.0911957,15.4200046 13.4616,14.7859738 C15.5863532,17.3826249 18.7615532,19.0904935 22.3422766,19.2697632 C22.2683745,18.9555517 22.2304851,18.6280775 22.2304851,18.291257 C22.2304851,15.9220309 24.1600723,14 26.5395957,14 C27.7785957,14 28.8982979,14.5216979 29.6845021,15.3558271 C30.6659617,15.1633837 31.5875489,14.8057345 32.4202213,14.3142115 C32.0981617,15.3162169 31.4151702,16.156933 30.5256638,16.6881552 C31.3972085,16.5843674 32.2279149,16.354183 33,16.0125559 C32.4230809,16.8731216 31.6917447,17.6289204 30.850583,18.2346455"></path></g></svg>