<svg xmlns="http://www.w3.org/2000/svg" width="45" height="45" viewBox="0 0 45 45" aria-labelledby="youtube-icon-label"><title id="youtube-icon-label">Youtube</title><circle class="icon__background" cx="22.5" cy="22.5" r="22.5"></circle><g class="icon__logo"><path d="M19.5340909,26.5097661 L19.5340909,18.4902339 L27.1136364,22.5001532 L19.5340909,26.5097661 Z M33.8301023,13.5670887 C31.5685966,13 22.5,13 22.5,13 C22.5,13 13.4314034,13 11.1698977,13.5670887 C9.92223864,13.8792097 8.93953409,14.7990242 8.60603409,15.9669113 C8,18.0837258 8,22.5 8,22.5 C8,22.5 8,26.9162742 8.60603409,29.0330887 C8.93953409,30.2009758 9.92223864,31.1206371 11.1698977,31.4329113 C13.4314034,32 22.5,32 22.5,32 C22.5,32 31.5685966,32 33.8301023,31.4329113 C35.0777614,31.1206371 36.0604659,30.2009758 36.3939659,29.0330887 C37,26.9162742 37,22.5 37,22.5 C37,22.5 37,18.0837258 36.3939659,15.9669113 C36.0604659,14.7990242 35.0777614,13.8792097 33.8301023,13.5670887 Z"></path></g></svg>